<?xml version="1.0" encoding="UTF-8" standalone="no"?>
<svg
   width="3000"
   height="3000"
   version="1.1"
   id="svg28"
   sodipodi:docname="File_Umbrella_Icon_Base.svg"
   inkscape:version="1.2.2 (732a01da63, 2022-12-09)"
   xmlns:inkscape="http://www.inkscape.org/namespaces/inkscape"
   xmlns:sodipodi="http://sodipodi.sourceforge.net/DTD/sodipodi-0.dtd"
   xmlns="http://www.w3.org/2000/svg"
   xmlns:svg="http://www.w3.org/2000/svg">
  <defs
     id="defs32" />
  <sodipodi:namedview
     id="namedview30"
     pagecolor="#ffffff"
     bordercolor="#000000"
     borderopacity="0.25"
     inkscape:showpageshadow="2"
     inkscape:pageopacity="0.0"
     inkscape:pagecheckerboard="0"
     inkscape:deskcolor="#d1d1d1"
     showgrid="false"
     inkscape:zoom="0.279"
     inkscape:cx="1906.81"
     inkscape:cy="1451.6129"
     inkscape:window-width="2560"
     inkscape:window-height="1017"
     inkscape:window-x="-8"
     inkscape:window-y="-8"
     inkscape:window-maximized="1"
     inkscape:current-layer="svg28" />
  <path
     style="fill:#6EA5FF;stroke:none"
     d="M 1444,0.424316 C 1408.5,5.08691 1371.77,4.59033 1336,8.16895 1253.61,16.4109 1171.72,33.2598 1092,55.4243 757.245,148.498 460.942,363.299 264.025,649 -4.00217,1037.87 -73.5975,1544.68 81.3441,1991 c 54.0379,155.66 133.7049,302.09 235.0799,432 91.011,116.63 199.241,220.49 320.576,305.28 150.237,104.99 318.291,182.35 496,227.35 183.38,46.43 376.72,56.72 564,32.09 495.59,-65.17 936.94,-384.59 1154.74,-834.72 91.18,-188.45 139.09,-393.47 148.22,-602 17.5,-399.92 -140.27,-800.651 -416,-1089 C 2397.93,267.457 2157.95,123.252 1898,52.8486 1787.25,22.8547 1674.41,5.96753 1560,0.960693 1535.04,-0.131592 1510.03,0 1485,0 c -13.44,0 -27.67,-1.32617 -41,0.424316 z"
     id="path6"
     sodipodi:nodetypes="ccccsccccccccssc" />
  <path
     style="fill:#fbfbfb;stroke:none"
     d="m 2999,1445 h 1 V 0 m -1733,185 -257,951 1525,882 257,-952 z"
     id="path8"
     sodipodi:nodetypes="cccccccc" />
  <path
     style="fill:#c3dbf5;stroke:none"
     d="m 1215,257 -658,1143 603,348.42 c 0,0 42.18,27.91 68,25.41 40.75,-3.94 73.15,-72.83 73.15,-72.83 L 1458,1429 975,1151 Z"
     id="path10"
     sodipodi:nodetypes="cccccccc" />
  <path
     style="fill:#fbfbfb;stroke:none"
     d="m 2188,396 -202,163 162,94 40,-257 m -703,1048 -535.579,924 c 0,0 -43.00137,74.0018 -78.24537,95.1018 -63.617,38.1 -157.40843,-4.4657 -148.13663,-80.1018 4.82349,-50.9203 27.90905,-91.8767 11.78571,-137.6882 C 708.32671,2172.6318 613.063,2159.97 564.464,2219 c -12.082,14.68 -16.526,30.42 -22.199,48 -11.073,34.3 -17.265,67.9 -17.265,104 0,77.77 30.089,154.58 84.039,211 93.591,97.88 249.766,124.63 368.961,58.14 73.1199,-42.7755 109.5055,-94.7789 147.42,-168.14 L 1662,1546 Z"
     id="path12"
     sodipodi:nodetypes="cccccccccccsccccc" />
  <path
     style="fill:#c3dbf5; stroke:none;"
     d="M1474 1462L1475 1463L1474 1462M1456 1493L1457 1494L1456 1493M1445 1512L1446 1513L1445 1512M1434 1531L1435 1532L1434 1531M1423 1550L1424 1551L1423 1550z"
     id="path14" />
  <path
     style="fill:#c3dbf5;stroke:none"
     d="m 1687,1562 -107.58,188.79 477.58,277.49 c 0,0 47.25,27.49 71,41 21.37,12.16 39.37,23.51 65,18.27 29,-5.93 40.78,-29.13 54.15,-52.55 21.38,-37.45 64.85,-112 64.85,-112 0,0 -410.9409,-237.7023 -625,-361 m -282,19 1,1 -1,-1 m -11,19 1,1 -1,-1 m -11,19 1,1 -1,-1 m -11,19 1,1 -1,-1 m -58,100 1,1 -1,-1 m -93,66 v 3 h 1 z"
     id="path20"
     sodipodi:nodetypes="cccccsccccccccccccccccccccc" />
  <path
     style="fill:#81b5e9; stroke:none;"
     d="M1221 1807L1222 1808L1221 1807z"
     id="path22" />
</svg>
